0
SECTION
2
HEADER
9
$INSUNITS
70
4
9
$ACADVER
1
AC1014
9
$HANDSEED
5
FFFF
0
ENDSEC
0
SECTION
2
TABLES
0
TABLE
2
VPORT
5
8
100
AcDbSymbolTable
0
ENDTAB
0
TABLE
2
LTYPE
5
5
100
AcDbSymbolTable
0
LTYPE
5
14
100
AcDbSymbolTableRecord
100
AcDbLinetypeTableRecord
2
BYBLOCK
70
0
0
LTYPE
5
15
100
AcDbSymbolTableRecord
100
AcDbLinetypeTableRecord
2
BYLAYER
70
0
0
ENDTAB
0
TABLE
2
LAYER
5
2
100
AcDbSymbolTable
70
2
0
LAYER
5
50
100
AcDbSymbolTableRecord
100
AcDbLayerTableRecord
2
0
70
0
6
CONTINUOUS
0
ENDTAB
0
TABLE
2
STYLE
5
3
100
AcDbSymbolTable
70
1
0
STYLE
5
11
100
AcDbSymbolTableRecord
100
AcDbTextStyleTableRecord
2
STANDARD
70
0
0
ENDTAB
0
TABLE
2
VIEW
5
6
100
AcDbSymbolTable
70
0
0
ENDTAB
0
TABLE
2
UCS
5
7
100
AcDbSymbolTable
70
0
0
ENDTAB
0
TABLE
2
APPID
5
9
100
AcDbSymbolTable
70
2
0
APPID
5
12
100
AcDbSymbolTableRecord
100
AcDbRegAppTableRecord
2
ACAD
70
0
0
ENDTAB
0
TABLE
2
DIMSTYLE
5
A
100
AcDbSymbolTable
70
1
0
ENDTAB
0
TABLE
2
BLOCK_RECORD
5
1
100
AcDbSymbolTable
70
1
0
BLOCK_RECORD
5
1F
100
AcDbSymbolTableRecord
100
AcDbBlockTableRecord
2
*MODEL_SPACE
0
BLOCK_RECORD
5
1B
100
AcDbSymbolTableRecord
100
AcDbBlockTableRecord
2
*PAPER_SPACE
0
ENDTAB
0
ENDSEC
0
SECTION
2
BLOCKS
0
BLOCK
5
20
100
AcDbEntity
100
AcDbBlockBegin
2
*MODEL_SPACE
0
ENDBLK
5
21
100
AcDbEntity
100
AcDbBlockEnd
0
BLOCK
5
1C
100
AcDbEntity
100
AcDbBlockBegin
2
*PAPER_SPACE
0
ENDBLK
5
1D
100
AcDbEntity
100
AcDbBlockEnd
0
ENDSEC
0
SECTION
2
ENTITIES
0
LWPOLYLINE
5
100
100
AcDbEntity
8
0
100
AcDbPolyline
90
31
70
1
43
0.0
10
156.50000233203173
20
-42.00000062584877
10
156.50000233203173
20
-12.000000178813934
42
0.06225774829854909
10
154.00000229477882
20
8.0000001192092896
42
0.030834852218785368
10
150.00000223517418
20
27.000000402331352
42
0.051147891956329357
10
142.00000211596489
20
49.000000730156891
42
0.047511554864493225
10
131.5000019595027
20
67.000000998377786
42
0.024235327088995971
10
122.49999726191163
20
76.399998292326927
42
0.1033990190262436
10
108.50000161677599
20
84.500001259148121
42
0.042157992415296497
10
82.500001229345813
20
89.500001333653998
42
0.026297590440448559
10
16.000000238418579
20
93.000001385807991
10
-22.500000093132257
20
93.000001385807991
42
0.026297590440447768
10
-89.000001084059477
20
89.500001333653927
42
0.042157992415295172
10
-115.00000147148967
20
84.500001259148121
42
0.10339901902624303
10
-128.99999711662534
20
76.399998292326941
42
0.024235327088995111
10
-138.00000181421638
20
67.0000009983778
42
0.047511554864492926
10
-148.5000019706786
20
49.000000730156906
42
0.051147891956329627
10
-156.50000208988786
20
27.000000402331352
42
0.03083485221878695
10
-160.5000021494925
20
8.0000001192092931
42
0.06225774829854909
10
-163.00000218674541
20
-12.000000178813934
10
-163.00000218674541
20
-42.00000062584877
42
0.049875621120890438
10
-161.50000216439366
20
-57.000000849366188
42
0.016482430999146761
10
-156.67383647119811
20
-74.490758059076228
42
0.076041356324992371
10
-150.44991566405722
20
-88.468283742672583
42
0.1301833361240621
10
-141.50000186637044
20
-97.000001445412636
42
0.10412214439994909
10
-124.5000016130507
20
-101.99999772012234
10
-123.89999723061919
20
-101.99999772012234
10
118.00000175833702
20
-101.99999772012234
42
0.10412214439994985
10
135.00000201165676
20
-97.000001445412636
42
0.13018333612406177
10
143.94991580934357
20
-88.468283742672583
42
0.076041356324992926
10
150.17383661648444
20
-74.490758059076228
42
0.016482430999150133
10
155.00000230967999
20
-57.000000849366188
42
0.049875621120890577
0
LWPOLYLINE
5
101
100
AcDbEntity
8
0
100
AcDbPolyline
90
15
70
1
43
0.0
10
98.500001467764378
20
-76.000001132488251
10
98.500001467764378
20
-30.000000447034836
42
-0.18144175592755429
10
101.47374291431717
20
-22.075025955313691
42
-0.03176551623243104
10
106.00000157952309
20
-18.000000268220901
42
-0.17617497767990634
10
111.50000166147947
20
-16.000000238418579
10
125.50000187009573
20
-16.000000238418579
42
-0.12371476286185891
10
135.10160887812947
20
-18.856660797797783
42
-0.20433327291681419
10
138.00000205636022
20
-24.000000357627837
42
-0.043396380615195206
10
139.00000207126141
20
-35.500000528991222
10
139.00000207126141
20
-43.000000640749803
42
-0.035668847618198933
10
138.00000205636076
20
-57.000000849362785
42
-0.0055012531312297165
10
135.10160887812947
20
-68.432614698578874
42
-0.17108933067370125
10
129.00000192224979
20
-79.000001177191734
42
-0.16682201044874642
10
112.09999749436975
20
-84.799998104572296
10
106.59999761730433
20
-84.79999810457231
42
-0.39016677285698931
0
LWPOLYLINE
5
102
100
AcDbEntity
8
0
100
AcDbPolyline
90
14
70
1
43
0.0
10
124.00000184774399
20
-3.0000000447034836
10
113.00000168383121
20
-3.0000000447034769
42
-0.19550592678976647
10
97.80455566454475
20
3.1777280997053237
42
-0.18367900357455186
10
93.500001393258572
20
14.500000216066837
10
93.500001393258557
20
19.50000029057264
42
-0.18313589012667927
10
98.084018797678269
20
31.595595447095892
10
107.00000159442425
20
40.500000603497028
42
-0.17847381490063877
10
113.59999746084213
20
42.999999038875103
10
118.17792629159288
20
42.999999038875103
42
-0.26601796569047215
10
131.83045750626346
20
35.183201863967355
10
135.26099465505195
20
28.935295419433427
10
135.50000201910734
20
28.500000424683098
42
-0.12619577970900508
10
138.00101391428981
20
18.748555689340265
10
138.00101391428981
20
10.763578319616505
42
-0.40921305609440822
0
CIRCLE
5
103
100
AcDbEntity
8
0
100
AcDbCircle
10
76.500001139938831
20
-76.500001139938831
30
0
40
5.9999999999999956
210
0
220
0
230
1
0
CIRCLE
5
104
100
AcDbEntity
8
0
100
AcDbCircle
10
76.500001139938831
20
-43.859001139938826
30
0
40
5.9999999999999956
210
0
220
0
230
1
0
CIRCLE
5
105
100
AcDbEntity
8
0
100
AcDbCircle
10
76.500001139938831
20
-11.218001139938822
30
0
40
5.9999999999999956
210
0
220
0
230
1
0
CIRCLE
5
106
100
AcDbEntity
8
0
100
AcDbCircle
10
76.500001139938831
20
21.422998860061178
30
0
40
5.9999999999999956
210
0
220
0
230
1
0
CIRCLE
5
107
100
AcDbEntity
8
0
100
AcDbCircle
10
96.500001437962055
20
52.500000782310963
30
0
40
6.0000000000000036
210
0
220
0
230
1
0
CIRCLE
5
108
100
AcDbEntity
8
0
100
AcDbCircle
10
59.499998670071363
20
81.799998171627522
30
0
40
1.5000000000000075
210
0
220
0
230
1
0
CIRCLE
5
109
100
AcDbEntity
8
0
100
AcDbCircle
10
121.19999729096889
20
63.299998585134745
30
0
40
1.4999999999999993
210
0
220
0
230
1
0
CIRCLE
5
110
100
AcDbEntity
8
0
100
AcDbCircle
10
138.39999690651894
20
38.399999141693115
30
0
40
1.9999999999999976
210
0
220
0
230
1
0
CIRCLE
5
111
100
AcDbEntity
8
0
100
AcDbCircle
10
147.39999670535326
20
-29.999999329447746
30
0
40
1.9999999999999938
210
0
220
0
230
1
0
CIRCLE
5
112
100
AcDbEntity
8
0
100
AcDbCircle
10
122.29999726638198
20
-91.999997943639755
30
0
40
1.9999999999999993
210
0
220
0
230
1
0
CIRCLE
5
113
100
AcDbEntity
8
0
100
AcDbCircle
10
57.999998703598976
20
-92.899997923523188
30
0
40
1.4999999999999929
210
0
220
0
230
1
0
CIRCLE
5
114
100
AcDbEntity
8
0
100
AcDbCircle
10
34.799999222159386
20
-81.799998171627522
30
0
40
1.5000000000000069
210
0
220
0
230
1
0
CIRCLE
5
115
100
AcDbEntity
8
0
100
AcDbCircle
10
34.799999222159386
20
-34.531998171627521
30
0
40
1.5000000000000069
210
0
220
0
230
1
0
CIRCLE
5
116
100
AcDbEntity
8
0
100
AcDbCircle
10
-83.00000099465251
20
-43.859001139938826
30
0
40
5.9999999999999956
210
0
220
0
230
1
0
CIRCLE
5
117
100
AcDbEntity
8
0
100
AcDbCircle
10
-103.00000129267573
20
52.500000782310963
30
0
40
6.0000000000000036
210
0
220
0
230
1
0
LWPOLYLINE
5
118
100
AcDbEntity
8
0
100
AcDbPolyline
90
15
70
1
43
0.0
10
-144.50000191107389
20
-57.000000849366117
42
-0.035668847618197712
10
-145.50000192597508
20
-43.000000640749931
10
-145.50000192597506
20
-35.500000528991265
42
-0.04339638061519354
10
-144.50000191107392
20
-24.000000357627869
42
-0.2043332729168143
10
-141.60160873284315
20
-18.856660797797783
42
-0.12371476286185937
10
-132.00000172480941
20
-16.000000238418579
10
-118.00000151619315
20
-16.000000238418583
42
-0.17617497767990623
10
-112.50000143423682
20
-18.000000268220859
42
-0.031765516232432373
10
-107.97374276903079
20
-22.075025955313727
42
-0.18144175592755418
10
-105.00000132247806
20
-30.000000447034836
10
-105.00000132247806
20
-76.000001132488237
42
-0.39016677285699014
10
-113.099997472018
20
-84.799998104572296
10
-118.59999734908342
20
-84.799998104572282
42
-0.16682201044874617
10
-135.50000177696344
20
-79.000001177191749
42
-0.17108933067370158
10
-141.60160873284246
20
-68.432614698582213
42
-0.0055012531312297165
0
LWPOLYLINE
5
119
100
AcDbEntity
8
0
100
AcDbPolyline
90
14
70
1
43
0.0
10
-130.50000170245767
20
-3.0000000447034836
10
-119.50000153854489
20
-3.0000000447034836
42
0.19550592678976639
10
-104.30455551925843
20
3.1777280997053126
42
0.18367900357455177
10
-100.00000124797225
20
14.500000216066837
10
-100.00000124797225
20
19.500000290572643
42
0.18313589012667908
10
-104.58401865239195
20
31.595595447095874
10
-113.50000144913793
20
40.500000603497028
42
0.17847381490063866
10
-120.09999731555581
20
42.999999038875103
10
-124.67792614630659
20
42.999999038875103
42
0.26601796569047204
10
-138.33045736097714
20
35.183201863967355
10
-141.76099450976562
20
28.935295419433444
10
-142.00000187382102
20
28.500000424683094
42
0.12619577970900497
10
-144.50101376900349
20
18.748555689340272
10
-144.50101376900349
20
10.763578319616514
42
0.40921305609440844
0
CIRCLE
5
120
100
AcDbEntity
8
0
100
AcDbCircle
10
-41.299999076873064
20
-34.531998171627514
30
0
40
1.5000000000000069
210
0
220
0
230
1
0
CIRCLE
5
121
100
AcDbEntity
8
0
100
AcDbCircle
10
-83.00000099465251
20
-76.500001139938831
30
0
40
5.9999999999999956
210
0
220
0
230
1
0
CIRCLE
5
122
100
AcDbEntity
8
0
100
AcDbCircle
10
-64.499998558312654
20
-92.899997923523188
30
0
40
1.4999999999999929
210
0
220
0
230
1
0
CIRCLE
5
123
100
AcDbEntity
8
0
100
AcDbCircle
10
-83.00000099465251
20
21.422998860061178
30
0
40
5.9999999999999956
210
0
220
0
230
1
0
CIRCLE
5
124
100
AcDbEntity
8
0
100
AcDbCircle
10
-83.00000099465251
20
-11.218001139938814
30
0
40
5.9999999999999956
210
0
220
0
230
1
0
CIRCLE
5
125
100
AcDbEntity
8
0
100
AcDbCircle
10
-65.999998524785042
20
81.799998171627522
30
0
40
1.5000000000000075
210
0
220
0
230
1
0
CIRCLE
5
126
100
AcDbEntity
8
0
100
AcDbCircle
10
-128.79999712109566
20
-91.999997943639755
30
0
40
1.9999999999999993
210
0
220
0
230
1
0
CIRCLE
5
127
100
AcDbEntity
8
0
100
AcDbCircle
10
-153.89999656006694
20
-29.999999329447746
30
0
40
1.9999999999999938
210
0
220
0
230
1
0
CIRCLE
5
128
100
AcDbEntity
8
0
100
AcDbCircle
10
-144.89999676123261
20
38.399999141693115
30
0
40
1.9999999999999976
210
0
220
0
230
1
0
CIRCLE
5
129
100
AcDbEntity
8
0
100
AcDbCircle
10
-127.69999714568257
20
63.299998585134745
30
0
40
1.4999999999999993
210
0
220
0
230
1
0
CIRCLE
5
130
100
AcDbEntity
8
0
100
AcDbCircle
10
-41.299999076873064
20
-81.799998171627522
30
0
40
1.5000000000000069
210
0
220
0
230
1
0
CIRCLE
5
131
100
AcDbEntity
8
0
100
AcDbCircle
10
-3.2499999273568392
20
-77.849998259916902
30
0
40
6.0000000000000036
210
0
220
0
230
1
0
CIRCLE
5
132
100
AcDbEntity
8
0
100
AcDbCircle
10
-33.560889059812183
20
11.499999389052398
30
0
40
1.5000000000000016
210
0
220
0
230
1
0
CIRCLE
5
133
100
AcDbEntity
8
0
100
AcDbCircle
10
27.060889205098519
20
11.499999389052382
30
0
40
1.5000000000000004
210
0
220
0
230
1
0
CIRCLE
5
134
100
AcDbEntity
8
0
100
AcDbCircle
10
-3.2499999273568392
20
-41.000000610947609
30
0
40
1.5000000000000011
210
0
220
0
230
1
0
LWPOLYLINE
5
135
100
AcDbEntity
8
0
100
AcDbPolyline
90
4
70
1
43
0.0
10
33.470000072643167
20
76.742638861781614
10
33.470000072643167
20
28.202638861781608
10
-39.969999927356838
20
28.202638861781608
10
-39.969999927356838
20
76.742638861781614
0
ENDSEC
0
SECTION
2
OBJECTS
0
DICTIONARY
5
C
100
AcDbDictionary
3
ACAD_GROUP
350
D
3
ACAD_MLINESTYLE
350
17
0
DICTIONARY
5
D
100
AcDbDictionary
0
DICTIONARY
5
1A
330
C
100
AcDbDictionary
0
DICTIONARY
5
17
100
AcDbDictionary
0
ENDSEC
0
EOF
